<svg width="30" height="29" viewBox="0 0 30 29" fill="none" xmlns="http://www.w3.org/2000/svg">
<g filter="url(#filter0_i_48_223)">
<path fill-rule="evenodd" clip-rule="evenodd" d="M17.4397 9.16453L15 1.61525L12.5603 9.16453C12.1303 10.4956 10.8965 11.3968 9.50453 11.3968H1.60961L7.99674 16.0624C9.12287 16.885 9.5941 18.3433 9.16395 19.6743L6.72428 27.2236L13.1114 22.5578C14.2375 21.7352 15.7625 21.7352 16.8886 22.5578L23.2757 27.2236L20.836 19.6743C20.406 18.3433 20.8772 16.885 22.0033 16.0624L28.3904 11.3968H20.4954C19.1035 11.3968 17.8697 10.4956 17.4397 9.16453ZM16.528 1.11611C16.047 -0.372036 13.953 -0.372036 13.472 1.11611L11.0324 8.66539C10.8174 9.33092 10.2005 9.78151 9.50453 9.78151H1.60961C0.053321 9.78151 -0.59374 11.7838 0.665311 12.7035L7.05244 17.3693C7.61552 17.7805 7.85113 18.5097 7.63605 19.1751L5.19638 26.7245C4.71546 28.2126 6.40951 29.4501 7.66858 28.5303L14.0557 23.8645C14.6188 23.4533 15.3812 23.4533 15.9443 23.8645L22.3314 28.5303C23.5904 29.4501 25.2845 28.2126 24.8037 26.7245L22.364 19.1751C22.1489 18.5097 22.3846 17.7805 22.9475 17.3693L29.3347 12.7035C30.5938 11.7838 29.9466 9.78151 28.3904 9.78151H20.4954C19.7995 9.78151 19.1826 9.33092 18.9676 8.66539L16.528 1.11611Z" fill="black"/>
</g>
<path d="M17.9154 9.01081L17.9154 9.01078L15.4758 1.4615L15.1691 0.512541C15.5517 0.569686 15.9075 0.822126 16.0522 1.26986C16.0522 1.26987 16.0522 1.26988 16.0522 1.26988L18.4918 8.81906C18.773 9.68969 19.5812 10.2815 20.4954 10.2815H28.3904C28.8571 10.2815 29.207 10.5459 29.3797 10.8968H28.3904H20.4954C19.3219 10.8968 18.2793 10.1368 17.9154 9.01081ZM14.8309 0.512541L14.5242 1.4615L12.0846 9.01078L12.0845 9.01081C11.7207 10.1368 10.6782 10.8968 9.50453 10.8968H1.60961H0.620289C0.792969 10.5459 1.14286 10.2815 1.60961 10.2815H9.50453C10.4189 10.2815 11.2269 9.68966 11.5082 8.81915L11.5082 8.81914L13.9478 1.26988C13.9478 1.26988 13.9478 1.26987 13.9478 1.26986C14.0925 0.822125 14.4482 0.569686 14.8309 0.512541ZM28.6853 11.8005L29.4834 11.2175C29.5487 11.6021 29.4207 12.0215 29.0398 12.2997L22.6526 16.9655L22.6525 16.9656C21.9146 17.5046 21.607 18.4589 21.8882 19.3289C21.8882 19.3289 21.8882 19.3289 21.8882 19.3289L24.3279 26.8782C24.4737 27.3294 24.3331 27.7432 24.0569 28.015L23.7515 27.0699L21.3118 19.5205C20.9478 18.3941 21.3471 17.1609 22.2983 16.4662L28.6853 11.8005ZM22.9808 27.6274L23.7841 28.2142C23.4396 28.3951 23.0026 28.4014 22.6263 28.1266L16.2393 23.4608L16.2392 23.4608C15.5005 22.9212 14.4995 22.9212 13.7608 23.4608L13.7607 23.4608L7.37365 28.1266C6.99738 28.4014 6.56034 28.3951 6.21591 28.2142L7.01922 27.6274L13.4063 22.9615C14.3568 22.2672 15.6432 22.2672 16.5937 22.9615L22.9808 27.6274ZM6.24851 27.0699L5.94307 28.015C5.66693 27.7432 5.52636 27.3294 5.67215 26.8782L8.11182 19.3289C8.393 18.4589 8.08548 17.5046 7.34734 16.9655L0.960249 12.2997L0.960242 12.2997C0.579309 12.0215 0.451322 11.602 0.51657 11.2175L1.31468 11.8005L7.70181 16.4662C8.65292 17.1609 9.05223 18.3941 8.68818 19.5205L9.16395 19.6743L8.68818 19.5205L6.24851 27.0699Z" stroke="black"/>
<defs>
<filter id="filter0_i_48_223" x="0" y="0" width="30" height="32.8462" filterUnits="userSpaceOnUse" color-interpolation-filters="sRGB">
<feFlood flood-opacity="0" result="BackgroundImageFix"/>
<feBlend mode="normal" in="SourceGraphic" in2="BackgroundImageFix" result="shape"/>
<feColorMatrix in="SourceAlpha" type="matrix" values="0 0 0 0 0 0 0 0 0 0 0 0 0 0 0 0 0 0 127 0" result="hardAlpha"/>
<feOffset dy="4"/>
<feGaussianBlur stdDeviation="2"/>
<feComposite in2="hardAlpha" operator="arithmetic" k2="-1" k3="1"/>
<feColorMatrix type="matrix" values="0 0 0 0 0 0 0 0 0 0 0 0 0 0 0 0 0 0 0.25 0"/>
<feBlend mode="normal" in2="shape" result="effect1_innerShadow_48_223"/>
</filter>
</defs>
</svg>
