<svg width="24" height="24" viewBox="0 0 24 24" fill="none" xmlns="http://www.w3.org/2000/svg">
<path fill-rule="evenodd" clip-rule="evenodd" d="M0.234324 0.237985C0.54674 -0.0793284 1.05327 -0.0793284 1.36568 0.237985L12 11.0385L22.6342 0.237985C22.9467 -0.0793284 23.4533 -0.0793284 23.7658 0.237985C24.0781 0.555283 24.0781 1.06972 23.7658 1.38702L12.5658 12.7621C12.2533 13.0793 11.7467 13.0793 11.4342 12.7621L0.234324 1.38702C-0.078108 1.06972 -0.078108 0.555283 0.234324 0.237985Z" fill="black"/>
<path fill-rule="evenodd" clip-rule="evenodd" d="M23.7658 23.7621C23.4533 24.0793 22.9467 24.0793 22.6342 23.7621L12 12.9616L1.36568 23.7621C1.05327 24.0793 0.54674 24.0793 0.234324 23.7621C-0.078108 23.4447 -0.078108 22.9303 0.234324 22.6129L11.4342 11.238C11.7467 10.9207 12.2533 10.9207 12.5658 11.238L23.7658 22.6129C24.0781 22.9303 24.0781 23.4447 23.7658 23.7621Z" fill="black"/>
</svg>
