<svg width="45" height="36" viewBox="0 0 45 36" fill="none" xmlns="http://www.w3.org/2000/svg">
<path d="M4.5 14.3474C2.52875 14.3474 0.9375 15.9387 0.9375 17.9099C0.9375 19.8812 2.52875 21.4724 4.5 21.4724C6.47125 21.4724 8.0625 19.8812 8.0625 17.9099C8.0625 15.9387 6.47125 14.3474 4.5 14.3474ZM4.5 0.0974121C2.52875 0.0974121 0.9375 1.68866 0.9375 3.65991C0.9375 5.63116 2.52875 7.22241 4.5 7.22241C6.47125 7.22241 8.0625 5.63116 8.0625 3.65991C8.0625 1.68866 6.47125 0.0974121 4.5 0.0974121ZM4.5 28.5974C2.52875 28.5974 0.9375 30.2124 0.9375 32.1599C0.9375 34.1074 2.5525 35.7224 4.5 35.7224C6.4475 35.7224 8.0625 34.1074 8.0625 32.1599C8.0625 30.2124 6.47125 28.5974 4.5 28.5974ZM11.625 34.5349H44.875V29.7849H11.625V34.5349ZM11.625 20.2849H44.875V15.5349H11.625V20.2849ZM11.625 1.28491V6.03491H44.875V1.28491H11.625Z" fill="black"/>
</svg>
