<svg width="46" height="31" viewBox="0 0 46 31" fill="none" xmlns="http://www.w3.org/2000/svg">
<path d="M3.71591 30H0.0227273L10.7045 0.90909H14.3409L25.0227 30H21.3295L12.6364 5.51136H12.4091L3.71591 30ZM5.07955 18.6364H19.9659V21.7614H5.07955V18.6364ZM35.5199 30.5114C34.1373 30.5114 32.8826 30.2509 31.7557 29.7301C30.6288 29.1998 29.7339 28.4375 29.071 27.4432C28.4081 26.4394 28.0767 25.2273 28.0767 23.8068C28.0767 22.5568 28.3229 21.5436 28.8153 20.767C29.3078 19.9811 29.9659 19.3655 30.7898 18.9205C31.6136 18.4754 32.5227 18.1439 33.517 17.9261C34.5208 17.6989 35.5294 17.5189 36.5426 17.3864C37.8684 17.2159 38.9432 17.0881 39.767 17.0028C40.6004 16.9081 41.2064 16.7519 41.5852 16.5341C41.9735 16.3163 42.1676 15.9375 42.1676 15.3977V15.2841C42.1676 13.8826 41.7841 12.7936 41.017 12.017C40.2595 11.2405 39.1089 10.8523 37.5653 10.8523C35.965 10.8523 34.7102 11.2027 33.8011 11.9034C32.892 12.6042 32.2528 13.3523 31.8835 14.1477L28.7017 13.0114C29.2699 11.6856 30.0275 10.6534 30.9744 9.91477C31.9309 9.16667 32.9725 8.64583 34.0994 8.35227C35.2358 8.04924 36.3532 7.89773 37.4517 7.89773C38.1525 7.89773 38.9574 7.98295 39.8665 8.15341C40.785 8.31439 41.6705 8.65057 42.5227 9.16193C43.3845 9.6733 44.0994 10.4451 44.6676 11.4773C45.2358 12.5095 45.5199 13.892 45.5199 15.625V30H42.1676V27.0455H41.9972C41.7699 27.5189 41.3911 28.0256 40.8608 28.5653C40.3305 29.1051 39.625 29.5644 38.7443 29.9432C37.8636 30.322 36.7888 30.5114 35.5199 30.5114ZM36.0312 27.5C37.357 27.5 38.4744 27.2396 39.3835 26.7188C40.3021 26.1979 40.9934 25.5256 41.4574 24.7017C41.9309 23.8778 42.1676 23.0114 42.1676 22.1023V19.0341C42.0256 19.2045 41.7131 19.3608 41.2301 19.5028C40.7566 19.6354 40.2074 19.7538 39.5824 19.858C38.9669 19.9527 38.3655 20.0379 37.7784 20.1136C37.2008 20.1799 36.732 20.2367 36.3722 20.2841C35.5009 20.3977 34.6866 20.5824 33.929 20.8381C33.1809 21.0843 32.5748 21.4583 32.1108 21.9602C31.6563 22.4527 31.429 23.125 31.429 23.9773C31.429 25.142 31.8598 26.0227 32.7216 26.6193C33.5928 27.2064 34.696 27.5 36.0312 27.5Z" fill="black"/>
</svg>
