<svg width="836" height="836" viewBox="0 0 836 836" fill="none" xmlns="http://www.w3.org/2000/svg">
<rect width="836" height="836" rx="128" fill="url(#paint0_linear_295_26)"/>
<path d="M172 205L173.8 203.2H230.8H287.8L289.6 205C290.8 205.8 291.8 207.2 292.6 209.2L343 352C376.6 446 393.4 493.2 393.4 493.6C393.4 494 393.8 493.4 394.6 491.8C396.2 486.6 406 448 424 376C444.4 294.4 454.2 252.2 453.4 249.4C453.4 249 452.8 248.2 451.6 247C447.2 240.2 435 236.8 415 236.8C409.4 236.8 406 235.4 404.8 232.6C404.4 231 405 226.4 406.6 218.8C408.6 211.2 410.4 206.6 412 205L413.8 203.2H420.4C444 204.8 475.2 205.2 514 204.4L548.8 203.2H553.6L555.4 205C557 206.6 557.8 208 557.8 209.2L552.4 233.2C550.8 235.6 546 236.8 538 236.8C524.8 237.2 513.6 239.6 504.4 244C498.4 246.8 494 250.8 491.2 256C490 258 475 317 446.2 433C416.6 551.4 401.8 610 401.8 608.8C401.4 609.6 400.6 610.6 399.4 611.8C398.2 612.6 393.2 613 384.4 613H371.2L369.4 611.2C368.2 610.4 348.4 556 310 448C269.2 332.8 249.2 276.2 250 278.2L247 269.8L210.4 414.4C186.4 510.8 174.4 560 174.4 562C174.4 564.8 174.6 566.4 175 566.8C178.2 575.2 191 579.4 213.4 579.4H219.4L221.8 581.2C223 582.8 223.6 584.4 223.6 586C223.6 592.4 221.6 600.2 217.6 609.4C216.4 611.8 212.8 612.8 206.8 612.4C205.2 612.4 202.2 612.4 197.8 612.4C147.8 610.8 108.6 611 80.2 613H74.8L73 611.2C71.4 609.6 70.6 608 70.6 606.4C70.6 600 72.6 592.2 76.6 583C77.4 580.6 80.6 579.4 86.2 579.4C104.2 579.4 117.8 576.4 127 570.4C131 568.4 134.2 565.4 136.6 561.4C137.8 559.4 151.8 505 178.6 398.2C205 291.4 218 238 217.6 238L193 236.8C175.8 236.8 166.4 235.4 164.8 232.6C164.4 231.4 165 226.8 166.6 218.8C168.6 211.2 170.4 206.6 172 205Z" fill="white"/>
<path d="M481 205L482.8 203.2H491.8C533 205.2 584 205.4 644.8 203.8C659.2 203.4 667.2 204.6 668.8 207.4C669.2 208.6 668.6 213.2 667 221.2C664.6 229.2 663 233.8 662.2 235L660.4 236.8H636.4C610.4 237.2 595.6 239 592 242.2C590.8 243 576.4 299 548.8 410.2C521.2 520.6 507.4 576.4 507.4 577.6C507.4 578.4 508.6 578.8 511 578.8H574.6C595.8 576.4 614.8 569.2 631.6 557.2C640.8 550.8 648.2 543.6 653.8 535.6C666.2 519.2 678 494.4 689.2 461.2C693.2 450.8 695.8 445.2 697 444.4C698.2 443.6 702.8 443.2 710.8 443.2C718.8 443.2 723.2 443.6 724 444.4C726.4 445.2 727.6 447 727.6 449.8L672.4 610C671.6 611.6 665.8 612.4 655 612.4C643.4 612.8 600.4 613 526 613H383.8L381.4 611.2C380.2 609.2 379.6 607.6 379.6 606.4C379.6 600 381.6 592.2 385.6 583C390.4 580.6 398 579.4 408.4 579.4C426.4 579 436.6 578.2 439 577C441 575.8 442.6 573.4 443.8 569.8C446.6 561.8 460.4 507.8 485.2 407.8C512.8 297.4 526.6 241.8 526.6 241C526.6 239.8 526.2 239.2 525.4 239.2C523 238.4 513.6 237.6 497.2 236.8C483.2 236.8 475.4 235.4 473.8 232.6C473.4 231.4 474 226.8 475.6 218.8C477.6 211.2 479.4 206.6 481 205Z" fill="white"/>
<defs>
<linearGradient id="paint0_linear_295_26" x1="51" y1="-274.5" x2="1009" y2="382" gradientUnits="userSpaceOnUse">
<stop stop-color="#84E251"/>
<stop offset="1" stop-color="#53A8C0"/>
</linearGradient>
</defs>
</svg>
