<svg width="50" height="49" viewBox="0 0 50 49" fill="none" xmlns="http://www.w3.org/2000/svg">
<path d="M21.0713 5.4041L16.4201 0.75293H0V43.1948C0 46.0802 2.34736 48.4273 5.23252 48.4273H44.7674C47.6526 48.4273 49.9999 46.0802 49.9999 43.1948V5.4041H21.0713ZM46.5116 43.1948C46.5116 44.1566 45.7292 44.9389 44.7675 44.9389H5.23252C4.2708 44.9389 3.48838 44.1566 3.48838 43.1948V4.24131H14.9752L19.6264 8.89248H46.5116V43.1948Z" fill="black"/>
<path d="M39.5348 23.4272V24.6216C38.3591 23.8669 36.9628 23.4272 35.4651 23.4272C31.2975 23.4272 27.907 26.8179 27.907 30.9854C27.907 35.1529 31.2976 38.5435 35.4651 38.5435C36.9628 38.5435 38.3591 38.1038 39.5348 37.349V38.5435H43.0232V23.4272H39.5348ZM35.4651 35.0552C33.221 35.0552 31.3954 33.2295 31.3954 30.9855C31.3954 28.7414 33.221 26.9157 35.4651 26.9157C37.7091 26.9157 39.5348 28.7414 39.5348 30.9855C39.5348 33.2295 37.7091 35.0552 35.4651 35.0552Z" fill="black"/>
<path d="M17.4146 13.3423L6.16699 38.5436H9.98701L13.3604 30.9854H21.5032L24.8924 38.5436H28.7154L17.4146 13.3423ZM14.9172 27.497L17.4222 21.8843L19.9391 27.497H14.9172Z" fill="black"/>
</svg>
