<svg width="52" height="53" viewBox="0 0 52 53" fill="none" xmlns="http://www.w3.org/2000/svg">
<path d="M28.2678 47.1439C27.7863 45.5305 27.46 40.4141 27.46 36.4138C27.46 35.9236 27.3324 35.4638 27.1104 35.0643C27.333 34.5681 27.4589 34.0204 27.4589 33.4433V26.1175C27.4589 23.9243 25.6751 22.1405 23.482 22.1405H19.7221C19.6879 21.6883 19.6641 21.2372 19.6499 20.7975C19.6342 20.4017 19.6288 20.0342 19.6271 19.6721C19.6223 19.2905 19.6282 18.9789 19.6451 18.708C19.6771 18.1223 19.7471 17.555 19.8502 17.0485C19.9615 16.5056 20.0842 16.1533 20.1314 16.0263C20.1396 16.004 20.1477 15.9829 20.1553 15.9606C20.1857 15.8732 20.2123 15.8081 20.2291 15.7701C21.7687 12.8316 20.6461 9.18359 17.7136 7.62016C16.8466 7.15873 15.8716 6.91445 14.8934 6.91065C13.9146 6.91445 12.9397 7.15875 12.0733 7.62016C9.14077 9.18359 8.01814 12.8316 9.55768 15.7701C9.57453 15.8074 9.60166 15.8727 9.63151 15.9606C9.6391 15.9829 9.64724 16.004 9.65538 16.0263C9.70261 16.1528 9.8253 16.5056 9.93658 17.0485C10.0397 17.555 10.1103 18.1223 10.1418 18.708C10.1586 18.9789 10.1646 19.2905 10.1597 19.6721C10.1575 20.0342 10.1526 20.4017 10.1369 20.7975C10.1228 21.2372 10.0989 21.6883 10.0647 22.1405H6.30487C4.11173 22.1405 2.32791 23.9243 2.32791 26.1175V33.4433C2.32791 34.0204 2.45385 34.5681 2.67642 35.0643C2.45439 35.4638 2.32682 35.9236 2.32682 36.4138C2.32682 40.4136 2.00057 45.5305 1.51905 47.1439C0.53054 47.9577 0.342169 49.1085 0.52674 49.9619C1.03485 52.3043 3.49019 52.3043 4.29688 52.3043C6.1719 52.3043 9.55227 51.9753 9.69504 51.9612C9.91327 51.9394 10.1244 51.8928 10.3242 51.825C10.5381 51.8782 10.7607 51.907 10.987 51.9075L14.8934 51.9263L18.7998 51.9075C19.0262 51.9069 19.2488 51.8775 19.4627 51.825C19.6624 51.8928 19.8736 51.9395 20.0918 51.9612C20.2346 51.9749 23.6155 52.3043 25.49 52.3043C26.2967 52.3043 28.7526 52.3043 29.2601 49.9619C29.4447 49.1085 29.2569 47.9577 28.2678 47.1439ZM20.4116 49.2974L18.9198 42.7897L18.1734 49.2339L10.9534 49.2307L9.37584 45.4361V49.2974C9.37584 49.2974 1.80191 50.0401 3.43536 49.2974C5.06882 48.5553 5.06882 36.5256 5.06882 36.5256H14.8934H24.718C24.718 36.5256 24.718 48.5553 26.3515 49.2974C27.9855 50.0401 20.4116 49.2974 20.4116 49.2974ZM39.7959 0.875732H27.4519L21.2568 19.6374H25.3065C26.8222 19.6374 28.1668 20.3719 29.0137 21.4999L29.2221 20.7117L33.1253 9.12932L34.395 9.12246L38.4849 21.5072H29.0196C29.5978 22.2813 29.9447 23.2373 29.9447 24.2752V29.6625H40.2144L42.0281 36.559H51.5362L39.7959 0.875732Z" fill="black"/>
</svg>
