<svg width="37" height="38" viewBox="0 0 37 38" fill="none" xmlns="http://www.w3.org/2000/svg">
<path fill-rule="evenodd" clip-rule="evenodd" d="M16.9478 30.9099C24.5418 30.9099 30.6978 24.7539 30.6978 17.1599C30.6978 9.56593 24.5418 3.40985 16.9478 3.40985C9.35383 3.40985 3.19775 9.56593 3.19775 17.1599C3.19775 24.7539 9.35383 30.9099 16.9478 30.9099ZM16.9478 33.4099C25.9223 33.4099 33.1978 26.1343 33.1978 17.1599C33.1978 8.18523 25.9223 0.909851 16.9478 0.909851C7.97313 0.909851 0.697754 8.18523 0.697754 17.1599C0.697754 26.1343 7.97313 33.4099 16.9478 33.4099Z" fill="black"/>
<path fill-rule="evenodd" clip-rule="evenodd" d="M26.8454 27.0576C27.3334 26.5693 28.1249 26.5693 28.6132 27.0576L36.5817 35.0261C37.0697 35.5141 37.0697 36.3056 36.5817 36.7938C36.0934 37.2818 35.3019 37.2818 34.8139 36.7938L26.8454 28.8253C26.3572 28.3371 26.3572 27.5456 26.8454 27.0576Z" fill="black"/>
</svg>
