<svg width="48" height="46" viewBox="0 0 48 46" fill="none" xmlns="http://www.w3.org/2000/svg">
<g filter="url(#filter0_d_225_676)">
<path fill-rule="evenodd" clip-rule="evenodd" d="M37.5112 3.80726C34.445 2.21776 30.7185 2.5565 27.9977 4.67201L24.6969 7.23856C24.2881 7.5564 23.7119 7.5564 23.3031 7.23856L20.0023 4.67201C17.2815 2.5565 13.555 2.21776 10.4886 3.80726L10.0237 4.04827C8.78976 4.68788 7.77565 5.67426 7.10957 6.88273C5.84356 9.17956 5.9891 11.9832 7.4863 14.1403L21.2128 33.9165C22.5548 35.8499 25.4452 35.8499 26.7872 33.9165L40.5136 14.1403C42.0108 11.9832 42.1565 9.17956 40.8904 6.88273C40.2244 5.67426 39.2103 4.68788 37.9764 4.04827L37.5112 3.80726ZM26.6041 2.92521C30.0229 0.266907 34.7053 -0.15873 38.5584 1.83857L39.0236 2.07961C40.6519 2.92363 41.9901 4.22527 42.869 5.81997C44.5397 8.85092 44.3475 12.5506 42.3719 15.3971L28.6453 35.1733C26.4086 38.3957 21.5914 38.3957 19.3546 35.1733L5.62816 15.3971C3.65244 12.5506 3.46038 8.85092 5.13102 5.81999C6.01 4.22527 7.34822 2.92363 8.97647 2.07961L9.44145 1.83857C13.2946 -0.15873 17.9771 0.266907 21.3959 2.92521L24 4.94993L26.6041 2.92521Z" fill="black"/>
<path d="M27.6908 4.27728L27.9977 4.67201L27.6908 4.27729L24.39 6.84382C24.39 6.84383 24.39 6.84384 24.39 6.84385C24.1617 7.02131 23.8383 7.02131 23.61 6.84385C23.61 6.84384 23.61 6.84383 23.61 6.84382L20.3092 4.27729L20.0041 4.66963L20.3092 4.27728C17.4339 2.04165 13.4977 1.68429 10.2585 3.36335L9.79356 3.60436L10.0237 4.04827L9.79356 3.60436C8.47257 4.28912 7.38585 5.34566 6.67168 6.64136C5.31383 9.10485 5.47018 12.1125 7.07554 14.4254L20.802 34.2016L21.2128 33.9165L20.802 34.2016C22.3429 36.4216 25.657 36.4216 27.198 34.2016L26.7872 33.9165L27.198 34.2016L40.9243 14.4254C42.5297 12.1125 42.6863 9.10486 41.3283 6.64135C40.6142 5.34565 39.5275 4.28911 38.2065 3.60436L38.2064 3.60433L37.7414 3.36335C34.5023 1.68429 30.566 2.04165 27.6908 4.27728ZM38.3283 2.28248L38.3284 2.28251L38.7935 2.52352C38.7935 2.52353 38.7935 2.52353 38.7935 2.52354C40.3347 3.32242 41.6003 4.55387 42.4311 6.06131L42.869 5.81997L42.4311 6.06133C44.0099 8.92563 43.8286 12.4214 41.9611 15.112L28.2345 34.8882C26.1967 37.8241 21.8033 37.8241 19.7654 34.8882L6.03891 15.112C4.17136 12.4214 3.99012 8.92564 5.5689 6.06135L5.5689 6.06135C6.39981 4.55386 7.66541 3.3224 9.20657 2.52351L9.20658 2.52351L9.67155 2.28248C9.67155 2.28248 9.67155 2.28248 9.67156 2.28247C13.3519 0.374739 17.8247 0.781758 21.089 3.31993L21.3959 2.92521L21.089 3.31994L23.6931 5.34466L24 5.58328L24.3069 5.34466L26.911 3.31994L26.6041 2.92521L26.911 3.31993C30.1753 0.781755 34.648 0.37474 38.3283 2.28248Z" stroke="black"/>
</g>
<defs>
<filter id="filter0_d_225_676" x="0" y="0.590088" width="48" height="45" filterUnits="userSpaceOnUse" color-interpolation-filters="sRGB">
<feFlood flood-opacity="0" result="BackgroundImageFix"/>
<feColorMatrix in="SourceAlpha" type="matrix" values="0 0 0 0 0 0 0 0 0 0 0 0 0 0 0 0 0 0 127 0" result="hardAlpha"/>
<feOffset dy="4"/>
<feGaussianBlur stdDeviation="2"/>
<feComposite in2="hardAlpha" operator="out"/>
<feColorMatrix type="matrix" values="0 0 0 0 0 0 0 0 0 0 0 0 0 0 0 0 0 0 0.25 0"/>
<feBlend mode="normal" in2="BackgroundImageFix" result="effect1_dropShadow_225_676"/>
<feBlend mode="normal" in="SourceGraphic" in2="effect1_dropShadow_225_676" result="shape"/>
</filter>
</defs>
</svg>
